<svg width="33" height="32" viewBox="0 0 33 32" fill="none" xmlns="http://www.w3.org/2000/svg">
<g id="Github-logo">
<path id="Vector" fill-rule="evenodd" clip-rule="evenodd" d="M16.2736 0C7.43737 0 0.272705 7.34325 0.272705 16.408C0.272705 23.6584 4.85866 29.8016 11.2161 31.9731C12.0162 32.1231 12.3091 31.616 12.3091 31.1802C12.3091 30.7873 12.2948 29.7587 12.2876 28.3872C7.83739 29.3801 6.89448 26.1871 6.89448 26.1871C6.16587 24.2941 5.11582 23.787 5.11582 23.787C3.66574 22.7655 5.22297 22.7869 5.22297 22.7869C6.8302 22.9012 7.6731 24.4799 7.6731 24.4799C9.10174 26.9871 11.4162 26.2657 12.3305 25.8442C12.4734 24.787 12.8877 24.0584 13.3448 23.6512C9.79464 23.2369 6.05873 21.8297 6.05873 15.5437C6.05873 13.7507 6.68019 12.2864 7.70167 11.1434C7.53738 10.7291 6.98735 9.05762 7.85882 6.80036C7.85882 6.80036 9.20175 6.35748 12.2591 8.47902C13.5377 8.11471 14.9021 7.93613 16.2664 7.92899C17.6236 7.93613 18.9951 8.11471 20.2738 8.47902C23.3311 6.35748 24.6669 6.80036 24.6669 6.80036C25.5383 9.05762 24.9883 10.7291 24.824 11.1434C25.8455 12.2935 26.4669 13.7579 26.4669 15.5437C26.4669 21.844 22.7239 23.2298 19.1594 23.637C19.7309 24.1441 20.2452 25.1442 20.2452 26.6728C20.2452 28.8658 20.2238 30.6373 20.2238 31.1731C20.2238 31.6088 20.5095 32.1231 21.3238 31.9588C27.6956 29.7944 32.2744 23.6513 32.2744 16.408C32.2744 7.34325 25.1097 0 16.2736 0Z" fill="#323232"/>
</g>
</svg>
