<svg width="33" height="32" viewBox="0 0 33 32" fill="none" xmlns="http://www.w3.org/2000/svg">
<g id="Instagram-logo">
<g id="Instagram_1_">
<path id="Instagram" fill-rule="evenodd" clip-rule="evenodd" d="M27.0062 7.45925C27.0062 8.51975 26.1465 9.37925 25.0862 9.37925C24.026 9.37925 23.1662 8.51975 23.1662 7.45925C23.1662 6.39875 24.026 5.53925 25.0862 5.53925C26.1467 5.53925 27.0062 6.39875 27.0062 7.45925ZM16.5455 21.3333C13.6 21.3333 11.2122 18.9455 11.2122 16C11.2122 13.0545 13.6 10.6667 16.5455 10.6667C19.491 10.6667 21.8787 13.0545 21.8787 16C21.8787 18.9455 19.491 21.3333 16.5455 21.3333ZM16.5455 7.78375C12.0077 7.78375 8.32922 11.4623 8.32922 16C8.32922 20.5377 12.0077 24.2162 16.5455 24.2162C21.0832 24.2162 24.7617 20.5377 24.7617 16C24.7617 11.4623 21.0832 7.78375 16.5455 7.78375ZM16.5455 2.883C20.8177 2.883 21.3237 2.89925 23.0107 2.97625C24.5707 3.0475 25.418 3.308 25.9817 3.52725C26.7285 3.8175 27.2615 4.16425 27.8215 4.72425C28.3815 5.284 28.7282 5.817 29.0185 6.564C29.2375 7.12775 29.4982 7.975 29.5695 9.535C29.6465 11.2222 29.6627 11.7282 29.6627 16.0005C29.6627 20.2727 29.6465 20.7787 29.5695 22.4657C29.4982 24.0257 29.2377 24.873 29.0185 25.4368C28.7282 26.1835 28.3815 26.7165 27.8215 27.2765C27.2617 27.8365 26.7287 28.1832 25.9817 28.4735C25.418 28.6925 24.5707 28.9532 23.0107 29.0245C21.3237 29.1015 20.8177 29.1178 16.5455 29.1178C12.273 29.1178 11.767 29.1015 10.08 29.0245C8.51997 28.9532 7.67272 28.6927 7.10897 28.4735C6.36222 28.1832 5.82922 27.8365 5.26922 27.2765C4.70947 26.7168 4.36247 26.1838 4.07222 25.4368C3.85322 24.873 3.59247 24.0257 3.52122 22.4657C3.44422 20.7785 3.42797 20.2725 3.42797 16.0005C3.42797 11.7282 3.44422 11.2222 3.52122 9.535C3.59247 7.975 3.85297 7.12775 4.07222 6.564C4.36247 5.81725 4.70922 5.28425 5.26922 4.72425C5.82897 4.16425 6.36197 3.8175 7.10897 3.52725C7.67272 3.30825 8.51997 3.0475 10.08 2.97625C11.7672 2.89925 12.2732 2.883 16.5455 2.883ZM16.5455 0C12.2002 0 11.6552 0.0185 9.94872 0.09625C8.24572 0.174 7.08247 0.4445 6.06497 0.84C5.01272 1.24875 4.12047 1.796 3.23097 2.6855C2.34147 3.575 1.79422 4.46725 1.38547 5.5195C0.989971 6.53725 0.719471 7.70025 0.641721 9.40325C0.563971 11.1097 0.545471 11.6547 0.545471 16C0.545471 20.3453 0.563971 20.8903 0.641721 22.5968C0.719471 24.2998 0.989971 25.4627 1.38547 26.4805C1.79422 27.5327 2.34147 28.425 3.23097 29.3145C4.12047 30.204 5.01272 30.751 6.06497 31.16C7.08272 31.5555 8.24572 31.826 9.94872 31.9037C11.6552 31.9815 12.2002 32 16.5455 32C20.8907 32 21.4357 31.9815 23.1422 31.9037C24.8452 31.826 26.0082 31.5555 27.026 31.16C28.0782 30.751 28.9705 30.204 29.86 29.3145C30.7495 28.425 31.2965 27.5327 31.7055 26.4805C32.101 25.4627 32.3715 24.2998 32.4492 22.5968C32.527 20.8903 32.5455 20.3453 32.5455 16C32.5455 11.6547 32.527 11.1097 32.4492 9.40325C32.3715 7.70025 32.101 6.53725 31.7055 5.5195C31.2965 4.46725 30.7495 3.575 29.86 2.6855C28.9705 1.796 28.0782 1.249 27.026 0.84C26.0082 0.4445 24.8452 0.174 23.1422 0.09625C21.4357 0.0185 20.8907 0 16.5455 0Z" fill="url(#paint0_radial)"/>
</g>
</g>
<defs>
<radialGradient id="paint0_radial" cx="0" cy="0" r="1" gradientUnits="userSpaceOnUse" gradientTransform="translate(5.32325 32.1111) scale(40.888)">
<stop stop-color="#FFB140"/>
<stop offset="0.2559" stop-color="#FF5445"/>
<stop offset="0.599" stop-color="#FC2B82"/>
<stop offset="1" stop-color="#8E40B7"/>
</radialGradient>
</defs>
</svg>
