<svg width="33" height="32" viewBox="0 0 33 32" fill="none" xmlns="http://www.w3.org/2000/svg">
<path id="LinkedIn-logo" fill-rule="evenodd" clip-rule="evenodd" d="M25.6371 23.5397V17.2933C25.6371 13.9467 23.8034 12.3893 21.3589 12.3893C19.3861 12.3893 18.5021 13.4469 18.0095 14.1888V12.6453H14.2929C14.3421 13.6677 14.2929 23.5397 14.2929 23.5397H18.0095V17.4555C18.0095 17.1307 18.0336 16.8053 18.1321 16.5728C18.4003 15.9221 19.0117 15.2485 20.0381 15.2485C21.3835 15.2485 21.921 16.2475 21.921 17.7115V23.5403H25.6371V23.5397ZM10.3776 11.1584C11.6732 11.1584 12.4805 10.3211 12.4805 9.2752C12.4565 8.20693 11.6732 7.3936 10.4022 7.3936C9.1312 7.3936 8.29975 8.2064 8.29975 9.2752C8.29975 10.3211 9.10657 11.1584 10.354 11.1584H10.3776ZM16.4211 32C7.35225 32 0 24.8363 0 16C0 7.1632 7.35225 0 16.4211 0C25.4899 0 32.8421 7.1632 32.8421 16C32.8421 24.8363 25.4899 32 16.4211 32ZM12.2359 23.5397V12.6453H8.51979V23.5397H12.2359Z" fill="#007AB9"/>
</svg>
