<svg width="32" height="32" viewBox="0 0 32 32" fill="none" xmlns="http://www.w3.org/2000/svg">
<g id="Spotify-logo">
<g id="Group">
<path id="Vector" d="M16.0001 0C7.16768 0 0 7.16768 0 16C0 24.8322 7.16768 32 16.0001 32C24.8322 32 32.0001 24.8322 32.0001 16C32.0001 7.16768 24.8323 0 16.0001 0Z" fill="#1AB26B"/>
<path id="Vector_2" d="M22.4968 23.542C22.2258 23.542 22.0582 23.4581 21.8065 23.3097C17.7807 20.884 13.0969 20.7806 8.47097 21.7289C8.21935 21.7935 7.8903 21.8968 7.70324 21.8968C7.07743 21.8968 6.6839 21.3999 6.6839 20.8773C6.6839 20.2129 7.0775 19.8968 7.5614 19.7936C12.8452 18.6258 18.2452 18.7289 22.8517 21.4839C23.2452 21.7356 23.4775 21.9614 23.4775 22.5484C23.4774 23.1355 23.0193 23.542 22.4968 23.542Z" fill="white"/>
<path id="Vector_3" d="M24.2324 19.3097C23.8968 19.3097 23.6712 19.1613 23.4388 19.0387C19.4065 16.6516 13.3936 15.6903 8.04523 17.142C7.73552 17.2258 7.5678 17.3095 7.2775 17.3095C6.5872 17.3095 6.02588 16.7483 6.02588 16.0581C6.02588 15.3677 6.36132 14.9097 7.02588 14.7226C8.81949 14.2193 10.6517 13.8452 13.3357 13.8452C17.5226 13.8452 21.5679 14.8839 24.7549 16.7805C25.2775 17.0902 25.484 17.4902 25.484 18.0516C25.4774 18.7485 24.9355 19.3097 24.2324 19.3097Z" fill="white"/>
<path id="Vector_4" d="M26.2323 14.3935C25.8968 14.3935 25.6904 14.3097 25.4001 14.142C20.8066 11.4001 12.5936 10.742 7.27748 12.2259C7.04527 12.2904 6.7549 12.3935 6.44513 12.3935C5.59358 12.3935 4.94196 11.729 4.94196 10.8709C4.94196 9.99358 5.48401 9.49675 6.0646 9.32902C8.33557 8.66446 10.8774 8.34836 13.6452 8.34836C18.355 8.34836 23.2903 9.32902 26.8969 11.4323C27.4001 11.7226 27.7291 12.1225 27.7291 12.8904C27.7291 13.7678 27.0195 14.3935 26.2323 14.3935Z" fill="white"/>
</g>
</g>
</svg>
