<svg width="33" height="32" viewBox="0 0 33 32" fill="none" xmlns="http://www.w3.org/2000/svg">
<g id="Twitter-logo">
<path id="Dark_Blue" d="M16.4091 32C25.2457 32 32.4091 24.8366 32.4091 16C32.4091 7.16344 25.2457 0 16.4091 0C7.57256 0 0.409119 7.16344 0.409119 16C0.409119 24.8366 7.57256 32 16.4091 32Z" fill="#1DA1F2"/>
<path id="Logo__x2014__FIXED" d="M13.4809 24.4402C20.5769 24.4402 24.4569 18.5602 24.4569 13.4642C24.4569 13.2962 24.4569 13.1282 24.4489 12.9682C25.2009 12.4242 25.8569 11.7442 26.3769 10.9682C25.6889 11.2722 24.9449 11.4802 24.1609 11.5762C24.9609 11.0962 25.5689 10.3442 25.8569 9.44016C25.1129 9.88016 24.2889 10.2002 23.4089 10.3762C22.7049 9.62416 21.7049 9.16016 20.5929 9.16016C18.4649 9.16016 16.7369 10.8882 16.7369 13.0162C16.7369 13.3202 16.7689 13.6162 16.8409 13.8962C13.6329 13.7362 10.7929 12.2002 8.8889 9.86416C8.5609 10.4322 8.3689 11.0962 8.3689 11.8002C8.3689 13.1362 9.0489 14.3202 10.0889 15.0082C9.4569 14.9922 8.8649 14.8162 8.3449 14.5282V14.5762C8.3449 16.4482 9.6729 18.0002 11.4409 18.3602C11.1209 18.4482 10.7769 18.4962 10.4249 18.4962C10.1769 18.4962 9.9369 18.4722 9.6969 18.4242C10.1849 19.9602 11.6089 21.0722 13.2969 21.1042C11.9769 22.1362 10.3129 22.7522 8.5049 22.7522C8.1929 22.7522 7.8889 22.7362 7.5849 22.6962C9.2729 23.8002 11.3049 24.4402 13.4809 24.4402" fill="white"/>
</g>
</svg>
