<svg width="433" height="351" viewBox="0 0 433 351" fill="none" xmlns="http://www.w3.org/2000/svg">
<g id="Logo">
<g id="g3105">
<g id="g998">
<path id="rect865" opacity="0.997" d="M71.6252 88.328L147.459 68.0084V76.0662L71.6252 96.3858V88.328Z" fill="url(#paint0_linear)"/>
<path id="rect869" opacity="0.997" d="M71.6252 213.399V101.291L79.1433 99.2761V211.384L71.6252 213.399Z" fill="url(#paint1_linear)"/>
<path id="rect871" opacity="0.997" d="M96.7943 206.655V123.975L104.312 121.961V204.64L96.7943 206.655Z" fill="url(#paint2_linear)"/>
<path id="rect873" opacity="0.997" d="M110.85 136.675L147.459 126.865V134.923L110.85 144.733V136.675Z" fill="url(#paint3_linear)"/>
<path id="rect875" opacity="0.997" d="M96.7943 111.012L147.459 97.4369V105.495L96.7943 119.07V111.012Z" fill="url(#paint4_linear)"/>
</g>
<g id="g1044">
<path id="path1034" opacity="0.997" d="M104.312 329.711L28.4783 350.031V341.973L104.312 321.653V329.711Z" fill="url(#paint5_linear)"/>
<path id="path1036" opacity="0.997" d="M104.312 204.64V316.749L96.7942 318.763V206.655L104.312 204.64Z" fill="url(#paint6_linear)"/>
<path id="path1038" opacity="0.997" d="M79.1431 211.384V294.064L71.6251 296.079V213.399L79.1431 211.384Z" fill="url(#paint7_linear)"/>
<path id="path1040" opacity="0.997" d="M65.0877 281.364L28.4782 291.174V283.116L65.0877 273.307V281.364Z" fill="url(#paint8_linear)"/>
<path id="path1042" opacity="0.997" d="M79.1431 307.027L28.4783 320.602V312.545L79.1431 298.969V307.027Z" fill="url(#paint9_linear)"/>
</g>
<g id="g1066">
<path id="path1056" opacity="0.997" d="M433 0L357.166 20.3196V28.3774L433 8.05779V0Z" fill="url(#paint10_linear)"/>
<path id="path1058" opacity="0.997" d="M433 125.071V12.9625L425.482 14.977V127.085L433 125.071Z" fill="url(#paint11_linear)"/>
<path id="path1060" opacity="0.997" d="M407.831 131.815V49.135L400.313 51.1494V133.829L407.831 131.815Z" fill="url(#paint12_linear)"/>
<path id="path1062" opacity="0.997" d="M393.776 69.367L357.166 79.1765V87.2343L393.776 77.4248V69.367Z" fill="url(#paint13_linear)"/>
<path id="path1064" opacity="0.997" d="M407.831 36.1724L357.166 49.748V57.8058L407.831 44.2302V36.1724Z" fill="url(#paint14_linear)"/>
</g>
<g id="g1304">
<path id="path1078" opacity="0.997" d="M281.332 40.6392L357.166 20.3196V28.3774L281.332 48.697V40.6392Z" fill="url(#paint15_linear)"/>
<path id="path1080" opacity="0.997" d="M281.332 165.71V53.6017L288.85 51.5873V163.696L281.332 165.71Z" fill="url(#paint16_linear)"/>
<path id="path1082" opacity="0.997" d="M306.501 158.966V76.2862L314.019 74.2717V156.952L306.501 158.966Z" fill="url(#paint17_linear)"/>
<path id="path1084" opacity="0.997" d="M320.557 88.9859L357.166 79.1765V87.2342L320.557 97.0437V88.9859Z" fill="url(#paint18_linear)"/>
<path id="path1086" opacity="0.997" d="M306.501 63.3236L357.166 49.748V57.8058L306.501 71.3814V63.3236Z" fill="url(#paint19_linear)"/>
</g>
<g id="g1110">
<path id="path1100" opacity="0.997" d="M223.293 173.46L147.459 193.78V185.722L223.293 165.403V173.46Z" fill="url(#paint20_linear)"/>
<path id="path1102" opacity="0.997" d="M223.293 48.3896V160.498L215.775 162.512V50.404L223.293 48.3896Z" fill="url(#paint21_linear)"/>
<path id="path1104" opacity="0.997" d="M198.124 55.1336V137.813L190.606 139.828V57.1481L198.124 55.1336Z" fill="url(#paint22_linear)"/>
<path id="path1106" opacity="0.997" d="M184.068 125.114L147.459 134.923V126.865L184.068 117.056V125.114Z" fill="url(#paint23_linear)"/>
<path id="path1108" opacity="0.997" d="M198.124 150.776L147.459 164.352V156.294L198.124 142.718V150.776Z" fill="url(#paint24_linear)"/>
</g>
<g id="g1178">
<path id="path1168" opacity="0.997" d="M314.019 282.023L238.186 302.342V294.284L314.019 273.965V282.023Z" fill="url(#paint25_linear)"/>
<path id="path1170" opacity="0.997" d="M314.019 156.952V269.06L306.501 271.075V158.966L314.019 156.952Z" fill="url(#paint26_linear)"/>
<path id="path1172" opacity="0.997" d="M288.85 163.696V246.376L281.332 248.39V165.71L288.85 163.696Z" fill="url(#paint27_linear)"/>
<path id="path1174" opacity="0.997" d="M274.795 233.676L238.186 243.485V235.428L274.795 225.618V233.676Z" fill="url(#paint28_linear)"/>
<path id="path1176" opacity="0.997" d="M288.85 259.338L238.186 272.914V264.856L288.85 251.28V259.338Z" fill="url(#paint29_linear)"/>
</g>
<g id="g1232">
<path id="path1222" opacity="0.997" d="M433 250.142L357.166 270.461V262.404L433 242.084V250.142Z" fill="url(#paint30_linear)"/>
<path id="path1224" opacity="0.997" d="M433 125.071V237.179L425.482 239.194V127.085L433 125.071Z" fill="url(#paint31_linear)"/>
<path id="path1226" opacity="0.997" d="M407.831 131.815V214.495L400.313 216.509V133.829L407.831 131.815Z" fill="url(#paint32_linear)"/>
<path id="path1228" opacity="0.997" d="M393.776 201.795L357.166 211.604V203.547L393.776 193.737V201.795Z" fill="url(#paint33_linear)"/>
<path id="path1230" opacity="0.997" d="M407.831 227.457L357.166 241.033V232.975L407.831 219.399V227.457Z" fill="url(#paint34_linear)"/>
</g>
<path id="path1295" opacity="0.997" d="M320.557 142.498L357.166 132.688V140.746L320.557 150.555V142.498Z" fill="url(#paint35_linear)"/>
<path id="path1306" opacity="0.997" d="M393.776 130.937L357.166 140.746V132.688L393.776 122.879V130.937Z" fill="url(#paint36_linear)"/>
</g>
<path id="path1227" opacity="0.65" d="M86.1317 134.197C111.819 134.197 132.643 113.373 132.643 87.686C132.643 61.9987 111.819 41.1749 86.1317 41.1749C60.4444 41.1749 39.6206 61.9987 39.6206 87.686C39.6206 113.373 60.4444 134.197 86.1317 134.197Z" fill="#3496D8" fill-opacity="0.996078"/>
<path id="circle1229" opacity="0.75" d="M223.942 201.38C239.164 201.38 251.504 189.04 251.504 173.818C251.504 158.596 239.164 146.256 223.942 146.256C208.72 146.256 196.38 158.596 196.38 173.818C196.38 189.04 208.72 201.38 223.942 201.38Z" fill="#344C62" fill-opacity="0.886275"/>
<path id="circle1231" opacity="0.65" d="M244.614 332.3C259.836 332.3 272.176 319.96 272.176 304.738C272.176 289.516 259.836 277.176 244.614 277.176C229.392 277.176 217.052 289.516 217.052 304.738C217.052 319.96 229.392 332.3 244.614 332.3Z" fill="#3495D6" fill-opacity="0.996078"/>
<path id="circle1233" opacity="0.75" d="M27.562 306.46C42.7842 306.46 55.1241 294.12 55.1241 278.898C55.1241 263.676 42.7842 251.336 27.562 251.336C12.3399 251.336 0 263.676 0 278.898C0 294.12 12.3399 306.46 27.562 306.46Z" fill="#344C62" fill-opacity="0.886275"/>
<path id="circle1235" opacity="0.75" d="M396.205 153.146C411.427 153.146 423.767 140.806 423.767 125.584C423.767 110.362 411.427 98.0221 396.205 98.0221C380.983 98.0221 368.643 110.362 368.643 125.584C368.643 140.806 380.983 153.146 396.205 153.146Z" fill="#344C62" fill-opacity="0.886275"/>
<path id="circle1237" opacity="0.65" d="M294.57 94.5765C320.258 94.5765 341.081 73.7527 341.081 48.0654C341.081 22.378 320.258 1.55429 294.57 1.55429C268.883 1.55429 248.059 22.378 248.059 48.0654C248.059 73.7527 268.883 94.5765 294.57 94.5765Z" fill="#3495D6" fill-opacity="0.996078"/>
</g>
<defs>
<linearGradient id="paint0_linear" x1="71.6252" y1="150.863" x2="147.459" y2="150.863" gradientUnits="userSpaceOnUse">
<stop stop-color="#3498DB"/>
<stop offset="1" stop-color="#34495E" stop-opacity="0.880588"/>
</linearGradient>
<linearGradient id="paint1_linear" x1="273.304" y1="128.705" x2="252.984" y2="52.8707" gradientUnits="userSpaceOnUse">
<stop stop-color="#3498DB"/>
<stop offset="1" stop-color="#34495E" stop-opacity="0.880588"/>
</linearGradient>
<linearGradient id="paint2_linear" x1="273.304" y1="128.705" x2="252.984" y2="52.8707" gradientUnits="userSpaceOnUse">
<stop stop-color="#3498DB"/>
<stop offset="1" stop-color="#34495E" stop-opacity="0.880588"/>
</linearGradient>
<linearGradient id="paint3_linear" x1="71.6253" y1="150.863" x2="147.459" y2="150.863" gradientUnits="userSpaceOnUse">
<stop stop-color="#3498DB"/>
<stop offset="1" stop-color="#34495E" stop-opacity="0.880588"/>
</linearGradient>
<linearGradient id="paint4_linear" x1="71.6253" y1="150.863" x2="147.459" y2="150.863" gradientUnits="userSpaceOnUse">
<stop stop-color="#3498DB"/>
<stop offset="1" stop-color="#34495E" stop-opacity="0.880588"/>
</linearGradient>
<linearGradient id="paint5_linear" x1="104.312" y1="267.176" x2="28.4783" y2="267.176" gradientUnits="userSpaceOnUse">
<stop stop-color="#3498DB"/>
<stop offset="1" stop-color="#34495E" stop-opacity="0.880588"/>
</linearGradient>
<linearGradient id="paint6_linear" x1="-97.3667" y1="289.335" x2="-77.047" y2="365.169" gradientUnits="userSpaceOnUse">
<stop stop-color="#3498DB"/>
<stop offset="1" stop-color="#34495E" stop-opacity="0.880588"/>
</linearGradient>
<linearGradient id="paint7_linear" x1="-97.3667" y1="289.335" x2="-77.0471" y2="365.169" gradientUnits="userSpaceOnUse">
<stop stop-color="#3498DB"/>
<stop offset="1" stop-color="#34495E" stop-opacity="0.880588"/>
</linearGradient>
<linearGradient id="paint8_linear" x1="104.312" y1="267.176" x2="28.4783" y2="267.176" gradientUnits="userSpaceOnUse">
<stop stop-color="#3498DB"/>
<stop offset="1" stop-color="#34495E" stop-opacity="0.880588"/>
</linearGradient>
<linearGradient id="paint9_linear" x1="104.312" y1="267.176" x2="28.4783" y2="267.176" gradientUnits="userSpaceOnUse">
<stop stop-color="#3498DB"/>
<stop offset="1" stop-color="#34495E" stop-opacity="0.880588"/>
</linearGradient>
<linearGradient id="paint10_linear" x1="433" y1="62.5354" x2="357.166" y2="62.5354" gradientUnits="userSpaceOnUse">
<stop stop-color="#3498DB"/>
<stop offset="1" stop-color="#34495E" stop-opacity="0.880588"/>
</linearGradient>
<linearGradient id="paint11_linear" x1="231.321" y1="148.456" x2="211.002" y2="72.622" gradientUnits="userSpaceOnUse">
<stop stop-color="#3498DB"/>
<stop offset="1" stop-color="#34495E" stop-opacity="0.880588"/>
</linearGradient>
<linearGradient id="paint12_linear" x1="231.321" y1="148.456" x2="211.001" y2="72.622" gradientUnits="userSpaceOnUse">
<stop stop-color="#3498DB"/>
<stop offset="1" stop-color="#34495E" stop-opacity="0.880588"/>
</linearGradient>
<linearGradient id="paint13_linear" x1="433" y1="62.5354" x2="357.166" y2="62.5354" gradientUnits="userSpaceOnUse">
<stop stop-color="#3498DB"/>
<stop offset="1" stop-color="#34495E" stop-opacity="0.880588"/>
</linearGradient>
<linearGradient id="paint14_linear" x1="433" y1="62.5354" x2="357.166" y2="62.5354" gradientUnits="userSpaceOnUse">
<stop stop-color="#3498DB"/>
<stop offset="1" stop-color="#34495E" stop-opacity="0.880588"/>
</linearGradient>
<linearGradient id="paint15_linear" x1="281.332" y1="103.175" x2="357.166" y2="103.175" gradientUnits="userSpaceOnUse">
<stop stop-color="#3498DB"/>
<stop offset="1" stop-color="#34495E" stop-opacity="0.880588"/>
</linearGradient>
<linearGradient id="paint16_linear" x1="281.332" y1="103.175" x2="357.166" y2="103.175" gradientUnits="userSpaceOnUse">
<stop stop-color="#3498DB"/>
<stop offset="1" stop-color="#34495E" stop-opacity="0.880588"/>
</linearGradient>
<linearGradient id="paint17_linear" x1="281.332" y1="103.175" x2="357.166" y2="103.175" gradientUnits="userSpaceOnUse">
<stop stop-color="#3498DB"/>
<stop offset="1" stop-color="#34495E" stop-opacity="0.880588"/>
</linearGradient>
<linearGradient id="paint18_linear" x1="281.332" y1="103.175" x2="357.166" y2="103.175" gradientUnits="userSpaceOnUse">
<stop stop-color="#3498DB"/>
<stop offset="1" stop-color="#34495E" stop-opacity="0.880588"/>
</linearGradient>
<linearGradient id="paint19_linear" x1="281.332" y1="103.175" x2="357.166" y2="103.175" gradientUnits="userSpaceOnUse">
<stop stop-color="#3498DB"/>
<stop offset="1" stop-color="#34495E" stop-opacity="0.880588"/>
</linearGradient>
<linearGradient id="paint20_linear" x1="223.293" y1="110.925" x2="147.459" y2="110.925" gradientUnits="userSpaceOnUse">
<stop stop-color="#3498DB"/>
<stop offset="1" stop-color="#34495E" stop-opacity="0.880588"/>
</linearGradient>
<linearGradient id="paint21_linear" x1="21.6141" y1="133.084" x2="41.9337" y2="208.918" gradientUnits="userSpaceOnUse">
<stop stop-color="#3498DB"/>
<stop offset="1" stop-color="#34495E" stop-opacity="0.880588"/>
</linearGradient>
<linearGradient id="paint22_linear" x1="21.6141" y1="133.084" x2="41.9337" y2="208.918" gradientUnits="userSpaceOnUse">
<stop stop-color="#3498DB"/>
<stop offset="1" stop-color="#34495E" stop-opacity="0.880588"/>
</linearGradient>
<linearGradient id="paint23_linear" x1="223.293" y1="110.925" x2="147.459" y2="110.925" gradientUnits="userSpaceOnUse">
<stop stop-color="#3498DB"/>
<stop offset="1" stop-color="#34495E" stop-opacity="0.880588"/>
</linearGradient>
<linearGradient id="paint24_linear" x1="223.293" y1="110.925" x2="147.459" y2="110.925" gradientUnits="userSpaceOnUse">
<stop stop-color="#3498DB"/>
<stop offset="1" stop-color="#34495E" stop-opacity="0.880588"/>
</linearGradient>
<linearGradient id="paint25_linear" x1="314.019" y1="219.487" x2="238.186" y2="219.487" gradientUnits="userSpaceOnUse">
<stop stop-color="#3498DB"/>
<stop offset="1" stop-color="#34495E" stop-opacity="0.880588"/>
</linearGradient>
<linearGradient id="paint26_linear" x1="112.341" y1="241.646" x2="132.66" y2="317.48" gradientUnits="userSpaceOnUse">
<stop stop-color="#3498DB"/>
<stop offset="1" stop-color="#34495E" stop-opacity="0.880588"/>
</linearGradient>
<linearGradient id="paint27_linear" x1="112.341" y1="241.646" x2="132.66" y2="317.48" gradientUnits="userSpaceOnUse">
<stop stop-color="#3498DB"/>
<stop offset="1" stop-color="#34495E" stop-opacity="0.880588"/>
</linearGradient>
<linearGradient id="paint28_linear" x1="314.019" y1="219.487" x2="238.186" y2="219.487" gradientUnits="userSpaceOnUse">
<stop stop-color="#3498DB"/>
<stop offset="1" stop-color="#34495E" stop-opacity="0.880588"/>
</linearGradient>
<linearGradient id="paint29_linear" x1="314.019" y1="219.487" x2="238.186" y2="219.487" gradientUnits="userSpaceOnUse">
<stop stop-color="#3498DB"/>
<stop offset="1" stop-color="#34495E" stop-opacity="0.880588"/>
</linearGradient>
<linearGradient id="paint30_linear" x1="433" y1="187.606" x2="357.166" y2="187.606" gradientUnits="userSpaceOnUse">
<stop stop-color="#3498DB"/>
<stop offset="1" stop-color="#34495E" stop-opacity="0.880588"/>
</linearGradient>
<linearGradient id="paint31_linear" x1="231.321" y1="209.765" x2="251.641" y2="285.599" gradientUnits="userSpaceOnUse">
<stop stop-color="#3498DB"/>
<stop offset="1" stop-color="#34495E" stop-opacity="0.880588"/>
</linearGradient>
<linearGradient id="paint32_linear" x1="231.321" y1="209.765" x2="251.641" y2="285.599" gradientUnits="userSpaceOnUse">
<stop stop-color="#3498DB"/>
<stop offset="1" stop-color="#34495E" stop-opacity="0.880588"/>
</linearGradient>
<linearGradient id="paint33_linear" x1="433" y1="187.606" x2="357.166" y2="187.606" gradientUnits="userSpaceOnUse">
<stop stop-color="#3498DB"/>
<stop offset="1" stop-color="#34495E" stop-opacity="0.880588"/>
</linearGradient>
<linearGradient id="paint34_linear" x1="433" y1="187.606" x2="357.166" y2="187.606" gradientUnits="userSpaceOnUse">
<stop stop-color="#3498DB"/>
<stop offset="1" stop-color="#34495E" stop-opacity="0.880588"/>
</linearGradient>
<linearGradient id="paint35_linear" x1="317.615" y1="98.9682" x2="296.904" y2="109.79" gradientUnits="userSpaceOnUse">
<stop stop-color="#3498DB"/>
<stop offset="1" stop-color="#34495E" stop-opacity="0.880588"/>
</linearGradient>
<linearGradient id="paint36_linear" x1="396.717" y1="174.466" x2="417.429" y2="163.645" gradientUnits="userSpaceOnUse">
<stop stop-color="#3498DB"/>
<stop offset="1" stop-color="#34495E" stop-opacity="0.880588"/>
</linearGradient>
</defs>
</svg>
