<svg width="33" height="33" viewBox="0 0 33 33" fill="none" xmlns="http://www.w3.org/2000/svg">
<g id="About-icon">
<g id="Icon-User">
<path id="Fill-57" d="M16.6446 32.7351C7.80777 32.7351 0.644592 25.5719 0.644592 16.7351C0.644592 7.89829 7.80777 0.735107 16.6446 0.735107C25.4814 0.735107 32.6446 7.89829 32.6446 16.7351C32.6446 25.5719 25.4814 32.7351 16.6446 32.7351ZM16.6446 2.4757C8.81195 2.4757 2.38518 8.90247 2.38518 16.7351C2.38518 24.5677 8.81195 30.9945 16.6446 30.9945C24.4772 30.9945 30.904 24.5677 30.904 16.7351C30.904 8.90247 24.4772 2.4757 16.6446 2.4757Z" fill="#3495D6"/>
<path id="Fill-58" d="M7.27219 28.3167L5.6655 27.5803C6.13412 26.4422 7.60692 25.8397 9.28056 25.1033C10.8873 24.3669 12.8956 23.4966 12.8956 22.4255V20.9527C12.2931 20.4841 11.3559 19.4129 11.222 17.8732C10.7534 17.4046 10.017 16.5343 10.017 15.4631C10.017 14.7937 10.2847 14.2581 10.4856 13.9234C10.3517 13.187 10.0839 11.7142 10.0839 10.5761C10.0839 6.89411 12.6278 4.48407 16.6446 4.48407C17.7827 4.48407 19.1885 4.81879 19.9249 5.62213C21.7324 5.95686 23.2052 8.09913 23.2052 10.5761C23.2052 12.1828 22.9375 13.5217 22.7366 14.1242C22.9375 14.459 23.1383 14.9276 23.1383 15.4631C23.1383 16.7351 22.5358 17.5385 21.9333 17.9401C21.7994 19.4799 20.9291 20.4841 20.3935 20.9527V22.4255C20.3935 23.3627 22.0672 23.9652 23.6069 24.5677C25.4144 25.2372 27.2889 25.9067 27.8914 27.4464L26.2178 28.0489C25.95 27.2456 24.3433 26.71 23.0044 26.1744C20.9291 25.438 18.586 24.5678 18.586 22.4255V20.0154L18.9877 19.7477C19.0546 19.7477 20.1927 18.9443 20.1927 17.4046V16.8021L20.7283 16.6012C20.7952 16.5343 21.3308 16.2665 21.3308 15.4631C21.3308 15.1954 21.1299 14.9276 21.063 14.8606L20.7283 14.459L20.8622 13.9903C20.8622 13.9903 21.3308 12.5175 21.3308 10.5092C21.3308 8.83553 20.3935 7.29577 19.3893 7.29577H18.8538L18.586 6.82717C18.3852 6.49244 17.5818 6.15771 16.5107 6.15771C13.4981 6.15771 11.6906 7.7644 11.6906 10.5092C11.6906 11.7811 12.1592 13.8564 12.1592 13.8564L12.2931 14.3251L11.9584 14.6598C11.9584 14.6598 11.6906 14.9945 11.6906 15.3292C11.6906 15.7979 12.2931 16.4004 12.5609 16.6682L12.8956 16.936V17.4046C12.8956 18.8774 14.1676 19.6807 14.1676 19.6807L14.5693 19.9485V22.3585C14.5693 24.5677 12.0923 25.7058 9.88306 26.6431C8.94582 27.1786 7.53997 27.8481 7.27219 28.3167Z" fill="#3495D6"/>
</g>
</g>
</svg>
