<svg width="33" height="35" viewBox="0 0 33 35" fill="none" xmlns="http://www.w3.org/2000/svg">
<g id="Home-icon">
<path id="Vector" d="M30.9385 17.6163H27.9852C27.6971 17.6163 27.445 17.8684 27.445 18.1565V33.2832C27.445 33.5713 27.1929 33.8234 26.9048 33.8234H22.0066C21.7185 33.8234 21.4664 33.5713 21.4664 33.2832V23.9191C21.4664 23.6309 21.2143 23.3788 20.9262 23.3788H11.5621C11.2739 23.3788 11.0218 23.6309 11.0218 23.9191V33.2832C11.0218 33.5713 10.7697 33.8234 10.4816 33.8234H5.61946C5.33133 33.8234 5.07922 33.5713 5.07922 33.2832V18.1565C5.07922 17.8684 4.82711 17.6163 4.53899 17.6163H1.54968C1.04546 17.6163 0.829364 17.0401 1.15351 16.6799L15.8479 1.98547C16.064 1.76937 16.4242 1.76937 16.6403 1.98547L31.3347 16.6799C31.6589 17.0401 31.4067 17.6163 30.9385 17.6163Z" stroke="#459EDB" stroke-width="2" stroke-miterlimit="10" stroke-linecap="round" stroke-linejoin="round"/>
</g>
</svg>
