<svg width="43" height="34" viewBox="0 0 43 34" fill="none" xmlns="http://www.w3.org/2000/svg">
<g id="Projects-icon">
<path id="Vector" d="M1.66003 28.9954H36.463V31.6733" stroke="#34495E" stroke-width="1.4" stroke-miterlimit="2.6131" stroke-linecap="round" stroke-linejoin="round"/>
<path id="Vector_2" d="M36.463 31.6733C36.463 32.3071 35.9451 32.8234 35.3146 32.8234" stroke="#34495E" stroke-width="1.4" stroke-miterlimit="2.6131" stroke-linecap="round" stroke-linejoin="round"/>
<path id="Vector_3" d="M35.3146 32.8234H2.57904" stroke="#34495E" stroke-width="1.4" stroke-miterlimit="2.6131" stroke-linecap="round" stroke-linejoin="round"/>
<path id="Vector_4" d="M2.57904 32.8234C2.07362 32.8234 1.66003 32.4089 1.66003 31.9035" stroke="#34495E" stroke-width="1.4" stroke-miterlimit="2.6131" stroke-linecap="round" stroke-linejoin="round"/>
<path id="Vector_5" d="M1.66003 31.9035V28.9954" stroke="#34495E" stroke-width="1.4" stroke-miterlimit="2.6131" stroke-linecap="round" stroke-linejoin="round"/>
<path id="Vector_6" d="M12.4734 10.7571H4.73909" stroke="#34495E" stroke-width="1.4" stroke-miterlimit="2.6131" stroke-linecap="round" stroke-linejoin="round"/>
<path id="Vector_7" d="M4.73906 10.7571C4.17283 10.7571 3.70999 11.2199 3.70999 11.7845" stroke="#34495E" stroke-width="1.4" stroke-miterlimit="2.6131" stroke-linecap="round" stroke-linejoin="round"/>
<path id="Vector_8" d="M3.70999 11.7845V28.9954H34.4131V22.6621" stroke="#34495E" stroke-width="1.4" stroke-miterlimit="2.6131" stroke-linecap="round" stroke-linejoin="round"/>
<path id="Vector_9" d="M24.5178 10.7571H17.5449" stroke="#34495E" stroke-width="1.4" stroke-miterlimit="2.6131" stroke-linecap="round" stroke-linejoin="round"/>
<path id="Vector_10" d="M33.5824 10.7571H27.385" stroke="#34495E" stroke-width="1.4" stroke-miterlimit="2.6131" stroke-linecap="round" stroke-linejoin="round"/>
<path id="Vector_11" d="M34.4131 19.4187V13.7435" stroke="#34495E" stroke-width="1.4" stroke-miterlimit="2.6131" stroke-linecap="round" stroke-linejoin="round"/>
<path id="Vector_12" d="M3.34967 30.9094H14.6285" stroke="#34495E" stroke-width="1.4" stroke-miterlimit="2.6131" stroke-linecap="round" stroke-linejoin="round"/>
<path id="Vector_13" d="M30.8353 31.1521C30.9696 31.1521 31.078 31.042 31.078 30.9095C31.078 30.7743 30.9695 30.6668 30.8353 30.6668C30.701 30.6668 30.591 30.7744 30.591 30.9095C30.591 31.042 30.701 31.1521 30.8353 31.1521Z" stroke="#34495E" stroke-width="1.4" stroke-miterlimit="2.6131" stroke-linecap="round" stroke-linejoin="round"/>
<path id="Vector_14" d="M32.6575 31.1521C32.7927 31.1521 32.9019 31.042 32.9019 30.9095C32.9019 30.7743 32.7927 30.6668 32.6575 30.6668C32.5241 30.6668 32.4156 30.7744 32.4156 30.9095C32.4156 31.042 32.5241 31.1521 32.6575 31.1521Z" stroke="#34495E" stroke-width="1.4" stroke-miterlimit="2.6131" stroke-linecap="round" stroke-linejoin="round"/>
<path id="Vector_15" d="M34.3297 31.1521C34.464 31.1521 34.5741 31.042 34.5741 30.9095C34.5741 30.7743 34.464 30.6668 34.3297 30.6668C34.1971 30.6668 34.087 30.7744 34.087 30.9095C34.0869 31.042 34.1971 31.1521 34.3297 31.1521Z" stroke="#34495E" stroke-width="1.4" stroke-miterlimit="2.6131" stroke-linecap="round" stroke-linejoin="round"/>
<path id="Vector_16" d="M28.6419 19.6523C28.6419 21.8916 26.8263 23.7079 24.5879 23.7079C22.3494 23.7079 20.5347 21.8915 20.5347 19.6523C20.5347 17.4147 22.3494 15.5982 24.5879 15.5982C26.8263 15.5982 28.6419 17.4147 28.6419 19.6523Z" stroke="#34495E" stroke-width="1.4" stroke-miterlimit="2.6131" stroke-linecap="round" stroke-linejoin="round"/>
<path id="Vector_17" d="M27.4068 3.64141C27.4068 5.19848 26.1442 6.45862 24.5879 6.45862C23.0309 6.45862 21.7707 5.19848 21.7707 3.64141C21.7707 2.08433 23.0309 0.823395 24.5879 0.823395C26.1441 0.823395 27.4068 2.08433 27.4068 3.64141Z" stroke="#34495E" stroke-width="1.4" stroke-miterlimit="2.6131" stroke-linecap="round" stroke-linejoin="round"/>
<path id="Vector_18" d="M41.6671 19.6523C41.6671 21.2093 40.4053 22.4712 38.8482 22.4712C37.2912 22.4712 36.0302 21.2093 36.0302 19.6523C36.0302 18.0969 37.2913 16.8351 38.8482 16.8351C40.4052 16.8351 41.6671 18.0969 41.6671 19.6523Z" stroke="#34495E" stroke-width="1.4" stroke-miterlimit="2.6131" stroke-linecap="round" stroke-linejoin="round"/>
<path id="Vector_19" d="M39.0409 7.40688C39.0409 8.45017 38.1952 9.29753 37.1502 9.29753C36.1044 9.29753 35.2562 8.45026 35.2562 7.40688C35.2562 6.361 36.1044 5.51454 37.1502 5.51454C38.1952 5.51454 39.0409 6.361 39.0409 7.40688Z" stroke="#34495E" stroke-width="1.4" stroke-miterlimit="2.6131" stroke-linecap="round" stroke-linejoin="round"/>
<path id="Vector_20" d="M10.1716 6.97161C10.1716 8.01739 9.32343 8.86385 8.27933 8.86385C7.23346 8.86385 6.38869 8.01739 6.38869 6.97161C6.38869 5.92742 7.23346 5.07927 8.27933 5.07927C9.32343 5.07918 10.1716 5.92733 10.1716 6.97161Z" stroke="#34495E" stroke-width="1.4" stroke-miterlimit="2.6131" stroke-linecap="round" stroke-linejoin="round"/>
<path id="Vector_21" d="M27.9013 17.1837L35.9035 8.86385" stroke="#34495E" stroke-width="1.4" stroke-miterlimit="2.6131" stroke-linecap="round" stroke-linejoin="round"/>
<path id="Vector_22" d="M24.5879 15.4757V6.52869" stroke="#34495E" stroke-width="1.4" stroke-miterlimit="2.6131" stroke-linecap="round" stroke-linejoin="round"/>
<path id="Vector_23" d="M28.6419 19.6523H34.3013H36.0302" stroke="#34495E" stroke-width="1.4" stroke-miterlimit="2.6131" stroke-linecap="round" stroke-linejoin="round"/>
<path id="Vector_24" d="M9.70715 8.25592L21.1912 17.2496" stroke="#34495E" stroke-width="1.4" stroke-miterlimit="2.6131" stroke-linecap="round" stroke-linejoin="round"/>
</g>
</svg>
